HIERARCHY
ROOT Hips
{
  OFFSET 57.8838 95.319 338.509
  CHANNELS 6 Xposition Yposition Zposition Zrotation Xrotation Yrotation
  JOINT LeftUpLeg
  {
    OFFSET 8.64259 1.95398 -2.38835
    CHANNELS 3 Zrotation Xrotation Yrotation
    JOINT LeftLeg
    {
      OFFSET 43.7702 0 0
      CHANNELS 3 Zrotation Xrotation Yrotation
      JOINT LeftFoot
      {
        OFFSET 40.6238 0 0
        CHANNELS 3 Zrotation Xrotation Yrotation
        JOINT LeftToeBase
        {
          OFFSET 12.7242 0 0
          CHANNELS 3 Zrotation Xrotation Yrotation
          End Site
          {
            OFFSET 0 0 0
          }
        }
      }
    }
  }
  JOINT RightUpLeg
  {
    OFFSET -8.2249 1.95398 -2.59336
    CHANNELS 3 Zrotation Xrotation Yrotation
    JOINT RightLeg
    {
      OFFSET 43.5653 0 0
      CHANNELS 3 Zrotation Xrotation Yrotation
      JOINT RightFoot
      {
        OFFSET 40.6238 0 0
        CHANNELS 3 Zrotation Xrotation Yrotation
        JOINT RightToeBase
        {
          OFFSET 12.7242 0 0
          CHANNELS 3 Zrotation Xrotation Yrotation
          End Site
          {
            OFFSET 0 0 0
          }
        }
      }
    }
  }
  JOINT Spine
  {
    OFFSET 0.165834 0.87714 6.61349
    CHANNELS 3 Zrotation Xrotation Yrotation
    JOINT Spine1
    {
      OFFSET 7.38963 1.71661e-005 0
      CHANNELS 3 Zrotation Xrotation Yrotation
      JOINT Spine2
      {
        OFFSET 11.9445 1.14441e-005 0
        CHANNELS 3 Zrotation Xrotation Yrotation
        JOINT Spine3
        {
          OFFSET 14.7254 4.19617e-005 0
          CHANNELS 3 Zrotation Xrotation Yrotation
          JOINT Spine4
          {
            OFFSET 10.9679 0 0
            CHANNELS 3 Zrotation Xrotation Yrotation
            JOINT RightShoulder
            {
              OFFSET 2.46616 -1.6653 3.69651
              CHANNELS 3 Zrotation Xrotation Yrotation
              JOINT RightArm
              {
                OFFSET 13.0012 0 0
                CHANNELS 3 Zrotation Xrotation Yrotation
                JOINT RightForeArm
                {
                  OFFSET 28.7848 1.62311e-005 0
                  CHANNELS 3 Zrotation Xrotation Yrotation
                  JOINT RightHand
                  {
                    OFFSET 26.5688 1.62095e-005 0
                    CHANNELS 3 Zrotation Xrotation Yrotation
                    End Site
                    {
                      OFFSET 0 0 0
                    }
                  }
                }
              }
            }
            JOINT LeftShoulder
            {
              OFFSET 2.38034 -1.29275 -3.7523
              CHANNELS 3 Zrotation Xrotation Yrotation
              JOINT LeftArm
              {
                OFFSET 16.3182 6.07031e-005 0
                CHANNELS 3 Zrotation Xrotation Yrotation
                JOINT LeftForeArm
                {
                  OFFSET 27.0901 0 0
                  CHANNELS 3 Zrotation Xrotation Yrotation
                  JOINT LeftHand
                  {
                    OFFSET 24.5451 1.51738e-005 0
                    CHANNELS 3 Zrotation Xrotation Yrotation
                    End Site
                    {
                      OFFSET 0 0 0
                    }
                  }
                }
              }
            }
            JOINT Neck
            {
              OFFSET 5.0226 -0.0266342 0
              CHANNELS 3 Zrotation Xrotation Yrotation
              JOINT Head
              {
                OFFSET 6.69364 2.86102e-005 0
                CHANNELS 3 Zrotation Xrotation Yrotation
                End Site
                {
                  OFFSET 0 0 0
                }
              }
            }
          }
        }
      }
    }
  }
}
MOTION
Frames:	11
Frame Time:	0.0416667
-7.71114 71.3189 45.7679 103.32 -15.5412 80.388 -179.656 33.5173 104.176 -58.0654 21.7833 5.05909 58.2172 -2.47561 -1.10161 55.9173 13.1633 9.58574 169.421 43.6963 97.7017 -100.39 -19.6489 -1.88534 63.006 -11.8151 -14.0727 38.1872 -12.495 -0.136441 -0.0489118 10.5901 -89.2627 5.68999 0.210358 1.44361 -5.98173 0.273671 1.43295 -28.5105 -0.233215 1.44009 -8.49788 -0.233191 1.4401 96.0499 -49.7722 -91.523 19.3724 -22.3261 -13.5899 -21.3501 7.80401 -78.811 -7.03774 -0.26387 -0.876188 -85.9136 -45.4616 84.1678 -12.9944 -23.2354 -30.595 2.18982 34.1399 -11.6896 5.36153 -0.767348 -14.3581 -0.856433 -19.5412 -0.825336 0.704749 -19.7497 -26.9235 
-3.37907 71.8983 40.1234 100.062 -19.9953 80.8955 -176.407 36.6916 103.165 -65.8458 24.3956 3.84895 61.8578 3.00234 1.81533 58.7207 15.3408 12.344 155.856 49.0399 103.795 -100.688 -17.0223 -0.886151 65.1783 -10.3109 -7.68072 35.4796 -9.26482 -3.06506 -0.363355 11.5889 -89.066 3.69571 -0.35144 1.82844 -7.97647 -0.270636 1.84213 -30.5035 -0.88465 1.63838 -10.4908 -0.884667 1.63837 95.522 -52.0038 -92.0563 21.5484 -20.3029 -18.5367 -28.3527 12.76 -93.0005 -5.41767 -0.28473 0.503452 -88.3477 -44.4693 80.1082 -21.989 -26.3203 -47.9476 1.94369 37.7489 0.889371 7.3638 -0.732604 -13.2304 11.1861 -18.729 -3.28429 2.14757 -18.2545 -22.7812 
0.322187 73.3546 36.7857 92.0964 -19.7152 76.9991 -176.871 39.6081 98.5171 -64.3922 22.3111 2.89741 64.9598 8.02466 4.40464 60.8914 16.7737 13.1957 135.57 53.1216 117.543 -91.6523 -18.2874 2.90981 65.1829 -12.3686 -10.0525 40.6054 -17.0333 -5.34558 -0.629461 11.8137 -88.9596 3.25025 -0.844213 2.02443 -8.42206 -0.754323 2.0596 -30.9501 -1.41353 1.67728 -10.9375 -1.41354 1.67725 94.2608 -55.8269 -93.4198 21.3556 -15.6154 -16.3095 -23.4031 8.53013 -85.7642 -13.4568 -0.959975 3.31597 -90.5763 -44.9225 76.6745 -31.9617 -16.508 -66.8212 4.6109 39.6495 1.20191 6.09121 -0.556735 -12.6391 18.4239 -18.8092 -1.65155 2.99793 -18.6109 -22.374 
4.40604 75.6301 35.9108 87.24 -17.6787 73.4552 -178.023 39.2386 93.7418 -60.5344 19.9027 2.39494 65.5873 9.61593 5.5111 61.5787 17.2162 13.3666 131.045 55.4891 120.549 -83.726 -13.1668 5.06318 65.5824 -12.9244 -9.64741 41.5813 -18.3679 -5.119 -0.991836 12.1068 -89.174 2.66813 -1.65744 1.59079 -9.00284 -1.58582 1.66218 -31.5426 -2.05886 1.01908 -11.53 -2.05888 1.01906 92.5826 -57.6018 -95.5487 19.4813 -11.7112 -13.403 -9.30337 1.51986 -69.6753 -22.8322 -1.77692 3.78889 -91.7592 -42.0659 73.9978 -34.1279 -2.28919 -74.3341 9.3395 41.6067 -13.3639 4.25366 -0.690898 -15.0076 25.8243 -18.2087 3.81568 2.76094 -19.6731 -23.1173 
10.5245 78.0206 38.3158 83.0686 -22.0973 68.5016 -174.002 32.1417 91.1993 -53.101 19.8859 -0.199175 65.5964 9.67132 5.92086 64.7946 18.9028 12.9835 141.41 54.8815 112.723 -77.2716 -10.3329 5.26973 64.2324 -10.8838 -10.0715 37.6167 -12.229 -2.86902 -1.08826 11.832 -89.1963 3.2189 -1.85512 1.55916 -8.45175 -1.78473 1.63928 -30.9943 -2.23791 0.929403 -10.9816 -2.23792 0.929398 90.9679 -57.2097 -97.897 22.6142 -14.8889 -5.06412 -5.30851 0.82083 -56.5135 -22.5181 -1.19642 0.946918 -90.6715 -42.5824 75.9166 -27.1781 5.10491 -70.598 16.2693 36.3713 -39.5306 7.81907 -1.25855 -17.4123 26.6954 -16.5289 9.57738 1.44467 -19.8936 -23.8665 
18.047 79.4248 44.33 77.0487 -32.3308 65.4369 -177.268 27.5865 94.0644 -58.3889 19.2787 3.04817 62.3148 1.87077 -3.81698 63.2589 19.3043 16.7136 151.011 44.7557 107.838 -71.5645 -10.3399 6.18639 67.2126 -14.3003 -6.72759 36.4385 -9.60152 4.04702 -0.659067 11.1292 -89.414 4.61948 -1.07734 1.16173 -7.05156 -1.02514 1.20802 -29.5883 -1.37665 0.78424 -9.57565 -1.37667 0.784236 89.8306 -55.5331 -99.8487 26.3081 -13.0518 -1.74537 10.6822 13.954 -46.0091 -15.0873 -0.36517 -2.31768 -89.7433 -49.154 78.927 -28.8957 -0.142968 -50.9583 12.5889 37.1392 -33.9862 7.673 -1.17671 -16.6698 24.9251 -14.1518 8.82479 0.237897 -16.9574 -19.1195 
25.0376 78.795 51.7858 73.4885 -46.3458 63.6131 176.159 32.7166 93.105 -82.9876 14.4936 6.53557 56.2068 -1.46772 7.82871 51.8347 12.3618 16.4232 159.626 32.9119 105.585 -70.4816 -15.3907 5.61929 67.5673 -14.7262 -8.95632 40.4679 -14.9587 2.19795 -0.137422 11.2003 -89.697 4.47281 -0.150836 0.594461 -7.1983 -0.124539 0.600507 -29.732 -0.322517 0.521651 -9.71932 -0.322526 0.521641 89.4343 -56.4173 -100.233 23.6349 -7.93697 -10.918 11.4641 13.1736 -43.5043 -16.8048 -0.388206 -2.55544 -87.3389 -56.8096 83.7923 -27.092 -20.0533 -31.0287 3.48525 49.4838 -7.26639 11.5897 -1.12194 -13.0965 30.0249 -9.5608 9.9489 -2.62616 -12.9251 -13.7648 
30.9845 77.9499 59.6565 60.5133 -60.7147 54.4266 177.924 51.2017 89.8295 -98.2423 10.3259 6.09446 59.4116 5.25079 13.8382 53.1151 13.1638 16.5927 170.627 22.1876 104.482 -66.5295 -17.3168 2.16576 70.1957 -18.578 -8.02972 43.5618 -18.8271 2.26548 0.562395 11.1494 -89.8463 4.56996 1.18631 0.288332 -7.10051 1.19785 0.235844 -29.6386 1.04481 0.631572 -9.62592 1.04481 0.631575 91.7372 -52.8741 -97.6028 22.853 -2.89349 -30.1075 9.21888 6.72807 -56.8396 -14.7405 -0.248212 -3.29602 -86.4514 -58.2429 85.2385 -13.6774 -31.1087 -2.07605 -0.547362 52.9291 0.443843 11.728 -0.660699 -10.3105 37.4298 -4.61202 10.5277 -4.60325 -9.03727 -8.37896 
35.5597 80.2082 70.2892 42.9786 -66.8449 32.4343 -161.608 64.4758 71.0682 -85.7459 14.4179 2.02078 60.6587 4.78973 10.6235 57.0582 15.7192 17.4243 176.619 7.39351 95.3302 -50.04 -21.0102 -2.27464 70.7962 -19.5171 -4.59242 43.8436 -19.3546 1.68999 0.886604 10.9791 -89.1671 4.89758 2.11393 1.60171 -6.77254 2.18236 1.5071 -29.308 1.53494 2.16288 -9.2953 1.53493 2.16288 95.2675 -42.7456 -93.7708 20.4438 -2.80922 -49.2032 -3.82664 1.63415 -84.9268 -16.3519 -0.965899 1.69449 -89.0853 -55.7083 81.1751 -6.97634 -28.6871 13.9501 -3.24757 62.9727 -0.0110475 12.8927 -0.99654 -12.8984 42.3536 -3.39704 9.68012 -7.90438 -7.84212 -5.32988 
39.4971 82.6051 86.9968 39.3022 -64.2768 26.7959 -153.732 58.5673 66.1116 -71.0479 15.4335 -3.81236 59.8329 1.27484 4.74164 61.5697 17.0896 12.9536 178.299 -1.4339 91.5774 -40.2382 -22.6337 -4.30478 54.8928 12.9667 15.1033 15.0759 19.584 -3.36479 0.722444 10.1724 -88.7768 6.51039 1.96249 2.34966 -5.16097 2.06397 2.26104 -27.6851 1.16587 2.83052 -7.67244 1.16587 2.83051 96.1567 -41.8499 -92.378 13.6801 -12.5623 -45.2754 -14.3317 10.1974 -95.6477 -9.17214 -0.651063 2.74198 -89.4409 -55.9787 80.7168 -11.0372 -32.4773 -5.65056 1.5826 73.2543 0.00815569 11.7264 -0.902321 -14.0399 30.499 -6.40687 2.76418 -3.70731 -7.1452 -0.941661 
42.6994 81.723 103.884 49.5717 -64.1875 38.8637 -167.215 40.1873 76.7581 -66.2651 18.6755 -2.77308 63.7142 8.23939 9.72051 64.887 18.4551 11.3847 174.093 9.14943 97.5188 -75.9459 -19.3666 -1.05984 51.1953 15.7386 5.08068 8.65334 29.6796 -5.30748 0.251921 10.1425 -89.0413 6.57977 0.910297 1.86008 -5.092 0.991289 1.81821 -27.6173 0.30927 2.04757 -7.60467 0.309271 2.04755 94.1237 -49.2211 -94.6061 17.9283 -25.8714 -24.4084 -18.186 10.5739 -71.4187 -7.93636 -0.21963 -1.7213 -87.4481 -57.2159 83.721 -14.0665 -23.6008 -35.891 -6.04498 58.6749 2.06562 12.1984 -1.09489 -13.9681 30.7406 -6.07037 0.747888 -6.57803 -6.03934 -1.38754 
